<mxfile host="Electron" agent="Mozilla/5.0 (Windows NT 10.0; Win64; x64) AppleWebKit/537.36 (KHTML, like Gecko) draw.io/25.0.2 Chrome/128.0.6613.186 Electron/32.2.5 Safari/537.36" version="25.0.2">
  <diagram name="Страница — 1" id="u5LSCXZEtogHAX4Afqrh">
    <mxGraphModel dx="1436" dy="844" grid="1" gridSize="10" guides="1" tooltips="1" connect="1" arrows="1" fold="1" page="1" pageScale="1" pageWidth="1169" pageHeight="1654" math="0" shadow="0">
      <root>
        <mxCell id="0" />
        <mxCell id="1" parent="0" />
        <mxCell id="qWkoYMUVsIUnYZ1i2x7t-3" style="edgeStyle=orthogonalEdgeStyle;rounded=0;orthogonalLoop=1;jettySize=auto;html=1;entryX=0.5;entryY=0;entryDx=0;entryDy=0;" edge="1" parent="1" source="qWkoYMUVsIUnYZ1i2x7t-1" target="qWkoYMUVsIUnYZ1i2x7t-2">
          <mxGeometry relative="1" as="geometry" />
        </mxCell>
        <mxCell id="qWkoYMUVsIUnYZ1i2x7t-1" value="&lt;font color=&quot;#ff3333&quot;&gt;Start&lt;/font&gt;" style="ellipse;whiteSpace=wrap;html=1;" vertex="1" parent="1">
          <mxGeometry x="525" y="10" width="120" height="80" as="geometry" />
        </mxCell>
        <mxCell id="qWkoYMUVsIUnYZ1i2x7t-5" style="edgeStyle=orthogonalEdgeStyle;rounded=0;orthogonalLoop=1;jettySize=auto;html=1;" edge="1" parent="1" source="qWkoYMUVsIUnYZ1i2x7t-2" target="qWkoYMUVsIUnYZ1i2x7t-4">
          <mxGeometry relative="1" as="geometry" />
        </mxCell>
        <mxCell id="qWkoYMUVsIUnYZ1i2x7t-2" value="int N,M" style="rounded=0;whiteSpace=wrap;html=1;" vertex="1" parent="1">
          <mxGeometry x="545" y="110" width="80" height="40" as="geometry" />
        </mxCell>
        <mxCell id="qWkoYMUVsIUnYZ1i2x7t-8" style="edgeStyle=orthogonalEdgeStyle;rounded=0;orthogonalLoop=1;jettySize=auto;html=1;entryX=0.5;entryY=0;entryDx=0;entryDy=0;" edge="1" parent="1" source="qWkoYMUVsIUnYZ1i2x7t-4" target="qWkoYMUVsIUnYZ1i2x7t-6">
          <mxGeometry relative="1" as="geometry" />
        </mxCell>
        <mxCell id="qWkoYMUVsIUnYZ1i2x7t-4" value="input N,M" style="shape=parallelogram;perimeter=parallelogramPerimeter;whiteSpace=wrap;html=1;fixedSize=1;" vertex="1" parent="1">
          <mxGeometry x="530" y="170" width="110" height="40" as="geometry" />
        </mxCell>
        <mxCell id="qWkoYMUVsIUnYZ1i2x7t-10" style="edgeStyle=orthogonalEdgeStyle;rounded=0;orthogonalLoop=1;jettySize=auto;html=1;" edge="1" parent="1" source="qWkoYMUVsIUnYZ1i2x7t-6" target="qWkoYMUVsIUnYZ1i2x7t-9">
          <mxGeometry relative="1" as="geometry" />
        </mxCell>
        <mxCell id="qWkoYMUVsIUnYZ1i2x7t-6" value="vector&amp;lt;vector&amp;lt;char&amp;gt;&amp;gt; cave(N, vector,&amp;lt;char&amp;gt;(M))" style="rounded=0;whiteSpace=wrap;html=1;" vertex="1" parent="1">
          <mxGeometry x="442.5" y="230" width="285" height="30" as="geometry" />
        </mxCell>
        <mxCell id="qWkoYMUVsIUnYZ1i2x7t-12" style="edgeStyle=orthogonalEdgeStyle;rounded=0;orthogonalLoop=1;jettySize=auto;html=1;entryX=0.5;entryY=0;entryDx=0;entryDy=0;" edge="1" parent="1" source="qWkoYMUVsIUnYZ1i2x7t-9" target="qWkoYMUVsIUnYZ1i2x7t-11">
          <mxGeometry relative="1" as="geometry" />
        </mxCell>
        <mxCell id="qWkoYMUVsIUnYZ1i2x7t-13" value="true" style="edgeLabel;html=1;align=center;verticalAlign=middle;resizable=0;points=[];" vertex="1" connectable="0" parent="qWkoYMUVsIUnYZ1i2x7t-12">
          <mxGeometry x="-0.2" y="2" relative="1" as="geometry">
            <mxPoint as="offset" />
          </mxGeometry>
        </mxCell>
        <mxCell id="qWkoYMUVsIUnYZ1i2x7t-49" style="edgeStyle=orthogonalEdgeStyle;rounded=0;orthogonalLoop=1;jettySize=auto;html=1;entryX=0.5;entryY=0;entryDx=0;entryDy=0;" edge="1" parent="1" source="qWkoYMUVsIUnYZ1i2x7t-9" target="qWkoYMUVsIUnYZ1i2x7t-20">
          <mxGeometry relative="1" as="geometry">
            <Array as="points">
              <mxPoint x="490" y="325" />
              <mxPoint x="490" y="600" />
              <mxPoint x="585" y="600" />
            </Array>
          </mxGeometry>
        </mxCell>
        <mxCell id="qWkoYMUVsIUnYZ1i2x7t-51" value="false" style="edgeLabel;html=1;align=center;verticalAlign=middle;resizable=0;points=[];" vertex="1" connectable="0" parent="qWkoYMUVsIUnYZ1i2x7t-49">
          <mxGeometry x="-0.9135" y="-2" relative="1" as="geometry">
            <mxPoint as="offset" />
          </mxGeometry>
        </mxCell>
        <mxCell id="qWkoYMUVsIUnYZ1i2x7t-9" value="i=0;i&amp;lt;N;i++" style="rhombus;whiteSpace=wrap;html=1;" vertex="1" parent="1">
          <mxGeometry x="527.5" y="280" width="115" height="90" as="geometry" />
        </mxCell>
        <mxCell id="qWkoYMUVsIUnYZ1i2x7t-15" style="edgeStyle=orthogonalEdgeStyle;rounded=0;orthogonalLoop=1;jettySize=auto;html=1;" edge="1" parent="1" source="qWkoYMUVsIUnYZ1i2x7t-11" target="qWkoYMUVsIUnYZ1i2x7t-14">
          <mxGeometry relative="1" as="geometry" />
        </mxCell>
        <mxCell id="qWkoYMUVsIUnYZ1i2x7t-16" value="true" style="edgeLabel;html=1;align=center;verticalAlign=middle;resizable=0;points=[];" vertex="1" connectable="0" parent="qWkoYMUVsIUnYZ1i2x7t-15">
          <mxGeometry x="-0.2099" relative="1" as="geometry">
            <mxPoint as="offset" />
          </mxGeometry>
        </mxCell>
        <mxCell id="qWkoYMUVsIUnYZ1i2x7t-17" style="edgeStyle=orthogonalEdgeStyle;rounded=0;orthogonalLoop=1;jettySize=auto;html=1;entryX=1;entryY=0.5;entryDx=0;entryDy=0;" edge="1" parent="1" source="qWkoYMUVsIUnYZ1i2x7t-11" target="qWkoYMUVsIUnYZ1i2x7t-9">
          <mxGeometry relative="1" as="geometry">
            <Array as="points">
              <mxPoint x="663" y="445" />
              <mxPoint x="663" y="325" />
            </Array>
          </mxGeometry>
        </mxCell>
        <mxCell id="qWkoYMUVsIUnYZ1i2x7t-18" value="false" style="edgeLabel;html=1;align=center;verticalAlign=middle;resizable=0;points=[];" vertex="1" connectable="0" parent="qWkoYMUVsIUnYZ1i2x7t-17">
          <mxGeometry x="-0.8187" y="3" relative="1" as="geometry">
            <mxPoint as="offset" />
          </mxGeometry>
        </mxCell>
        <mxCell id="qWkoYMUVsIUnYZ1i2x7t-11" value="j=0;j&amp;lt;M;j++" style="rhombus;whiteSpace=wrap;html=1;" vertex="1" parent="1">
          <mxGeometry x="530" y="400" width="115" height="90" as="geometry" />
        </mxCell>
        <mxCell id="qWkoYMUVsIUnYZ1i2x7t-56" style="edgeStyle=orthogonalEdgeStyle;rounded=0;orthogonalLoop=1;jettySize=auto;html=1;entryX=0;entryY=0.5;entryDx=0;entryDy=0;" edge="1" parent="1" source="qWkoYMUVsIUnYZ1i2x7t-14" target="qWkoYMUVsIUnYZ1i2x7t-11">
          <mxGeometry relative="1" as="geometry">
            <Array as="points">
              <mxPoint x="505" y="555" />
              <mxPoint x="505" y="445" />
            </Array>
          </mxGeometry>
        </mxCell>
        <mxCell id="qWkoYMUVsIUnYZ1i2x7t-14" value="input cave[i] [j]" style="shape=parallelogram;perimeter=parallelogramPerimeter;whiteSpace=wrap;html=1;fixedSize=1;" vertex="1" parent="1">
          <mxGeometry x="525" y="530" width="125" height="50" as="geometry" />
        </mxCell>
        <mxCell id="qWkoYMUVsIUnYZ1i2x7t-60" style="edgeStyle=orthogonalEdgeStyle;rounded=0;orthogonalLoop=1;jettySize=auto;html=1;" edge="1" parent="1" source="qWkoYMUVsIUnYZ1i2x7t-20" target="qWkoYMUVsIUnYZ1i2x7t-22">
          <mxGeometry relative="1" as="geometry" />
        </mxCell>
        <mxCell id="qWkoYMUVsIUnYZ1i2x7t-61" value="true" style="edgeLabel;html=1;align=center;verticalAlign=middle;resizable=0;points=[];" vertex="1" connectable="0" parent="qWkoYMUVsIUnYZ1i2x7t-60">
          <mxGeometry x="0.2" relative="1" as="geometry">
            <mxPoint as="offset" />
          </mxGeometry>
        </mxCell>
        <mxCell id="qWkoYMUVsIUnYZ1i2x7t-70" style="edgeStyle=orthogonalEdgeStyle;rounded=0;orthogonalLoop=1;jettySize=auto;html=1;entryX=0.5;entryY=0;entryDx=0;entryDy=0;" edge="1" parent="1" source="qWkoYMUVsIUnYZ1i2x7t-20" target="qWkoYMUVsIUnYZ1i2x7t-69">
          <mxGeometry relative="1" as="geometry">
            <Array as="points">
              <mxPoint x="330" y="665" />
              <mxPoint x="330" y="1260" />
              <mxPoint x="585" y="1260" />
            </Array>
          </mxGeometry>
        </mxCell>
        <mxCell id="qWkoYMUVsIUnYZ1i2x7t-20" value="j=0;j&amp;lt;M;j++" style="rhombus;whiteSpace=wrap;html=1;" vertex="1" parent="1">
          <mxGeometry x="527.5" y="620" width="115" height="90" as="geometry" />
        </mxCell>
        <mxCell id="qWkoYMUVsIUnYZ1i2x7t-25" style="edgeStyle=orthogonalEdgeStyle;rounded=0;orthogonalLoop=1;jettySize=auto;html=1;entryX=1;entryY=0.5;entryDx=0;entryDy=0;" edge="1" parent="1" source="qWkoYMUVsIUnYZ1i2x7t-22" target="qWkoYMUVsIUnYZ1i2x7t-20">
          <mxGeometry relative="1" as="geometry">
            <Array as="points">
              <mxPoint x="663" y="782" />
              <mxPoint x="663" y="665" />
            </Array>
          </mxGeometry>
        </mxCell>
        <mxCell id="qWkoYMUVsIUnYZ1i2x7t-26" value="false" style="edgeLabel;html=1;align=center;verticalAlign=middle;resizable=0;points=[];" vertex="1" connectable="0" parent="qWkoYMUVsIUnYZ1i2x7t-25">
          <mxGeometry x="-0.8772" y="1" relative="1" as="geometry">
            <mxPoint x="1" as="offset" />
          </mxGeometry>
        </mxCell>
        <mxCell id="qWkoYMUVsIUnYZ1i2x7t-33" style="edgeStyle=orthogonalEdgeStyle;rounded=0;orthogonalLoop=1;jettySize=auto;html=1;" edge="1" parent="1" source="qWkoYMUVsIUnYZ1i2x7t-22" target="qWkoYMUVsIUnYZ1i2x7t-27">
          <mxGeometry relative="1" as="geometry" />
        </mxCell>
        <mxCell id="qWkoYMUVsIUnYZ1i2x7t-59" value="true" style="edgeLabel;html=1;align=center;verticalAlign=middle;resizable=0;points=[];" vertex="1" connectable="0" parent="qWkoYMUVsIUnYZ1i2x7t-33">
          <mxGeometry x="0.5" y="-1" relative="1" as="geometry">
            <mxPoint as="offset" />
          </mxGeometry>
        </mxCell>
        <mxCell id="qWkoYMUVsIUnYZ1i2x7t-22" value="i=N-1;i&amp;gt;=0;i++" style="rhombus;whiteSpace=wrap;html=1;" vertex="1" parent="1">
          <mxGeometry x="527.5" y="740" width="115" height="90" as="geometry" />
        </mxCell>
        <mxCell id="qWkoYMUVsIUnYZ1i2x7t-35" style="edgeStyle=orthogonalEdgeStyle;rounded=0;orthogonalLoop=1;jettySize=auto;html=1;" edge="1" parent="1" source="qWkoYMUVsIUnYZ1i2x7t-27" target="qWkoYMUVsIUnYZ1i2x7t-34">
          <mxGeometry relative="1" as="geometry" />
        </mxCell>
        <mxCell id="qWkoYMUVsIUnYZ1i2x7t-57" value="true" style="edgeLabel;html=1;align=center;verticalAlign=middle;resizable=0;points=[];" vertex="1" connectable="0" parent="qWkoYMUVsIUnYZ1i2x7t-35">
          <mxGeometry x="0.2" y="-1" relative="1" as="geometry">
            <mxPoint as="offset" />
          </mxGeometry>
        </mxCell>
        <mxCell id="qWkoYMUVsIUnYZ1i2x7t-62" style="edgeStyle=orthogonalEdgeStyle;rounded=0;orthogonalLoop=1;jettySize=auto;html=1;entryX=1;entryY=0.5;entryDx=0;entryDy=0;" edge="1" parent="1" source="qWkoYMUVsIUnYZ1i2x7t-27" target="qWkoYMUVsIUnYZ1i2x7t-20">
          <mxGeometry relative="1" as="geometry">
            <Array as="points">
              <mxPoint x="720" y="895" />
              <mxPoint x="720" y="640" />
              <mxPoint x="643" y="640" />
            </Array>
          </mxGeometry>
        </mxCell>
        <mxCell id="qWkoYMUVsIUnYZ1i2x7t-65" value="false" style="edgeLabel;html=1;align=center;verticalAlign=middle;resizable=0;points=[];" vertex="1" connectable="0" parent="qWkoYMUVsIUnYZ1i2x7t-62">
          <mxGeometry x="-0.9061" y="1" relative="1" as="geometry">
            <mxPoint as="offset" />
          </mxGeometry>
        </mxCell>
        <mxCell id="qWkoYMUVsIUnYZ1i2x7t-27" value="cave[i][j]==S?" style="rhombus;whiteSpace=wrap;html=1;" vertex="1" parent="1">
          <mxGeometry x="540" y="850" width="90" height="90" as="geometry" />
        </mxCell>
        <mxCell id="qWkoYMUVsIUnYZ1i2x7t-37" style="edgeStyle=orthogonalEdgeStyle;rounded=0;orthogonalLoop=1;jettySize=auto;html=1;" edge="1" parent="1" source="qWkoYMUVsIUnYZ1i2x7t-34" target="qWkoYMUVsIUnYZ1i2x7t-36">
          <mxGeometry relative="1" as="geometry" />
        </mxCell>
        <mxCell id="qWkoYMUVsIUnYZ1i2x7t-34" value="int col=i" style="rounded=0;whiteSpace=wrap;html=1;" vertex="1" parent="1">
          <mxGeometry x="545" y="960" width="80" height="50" as="geometry" />
        </mxCell>
        <mxCell id="qWkoYMUVsIUnYZ1i2x7t-39" style="edgeStyle=orthogonalEdgeStyle;rounded=0;orthogonalLoop=1;jettySize=auto;html=1;entryX=0.5;entryY=0;entryDx=0;entryDy=0;" edge="1" parent="1" source="qWkoYMUVsIUnYZ1i2x7t-36" target="qWkoYMUVsIUnYZ1i2x7t-38">
          <mxGeometry relative="1" as="geometry">
            <Array as="points">
              <mxPoint x="443" y="1050" />
            </Array>
          </mxGeometry>
        </mxCell>
        <mxCell id="qWkoYMUVsIUnYZ1i2x7t-40" value="true" style="edgeLabel;html=1;align=center;verticalAlign=middle;resizable=0;points=[];" vertex="1" connectable="0" parent="qWkoYMUVsIUnYZ1i2x7t-39">
          <mxGeometry x="-0.5538" y="-2" relative="1" as="geometry">
            <mxPoint x="1" as="offset" />
          </mxGeometry>
        </mxCell>
        <mxCell id="qWkoYMUVsIUnYZ1i2x7t-43" style="edgeStyle=orthogonalEdgeStyle;rounded=0;orthogonalLoop=1;jettySize=auto;html=1;entryX=1;entryY=0.5;entryDx=0;entryDy=0;" edge="1" parent="1" source="qWkoYMUVsIUnYZ1i2x7t-36" target="qWkoYMUVsIUnYZ1i2x7t-41">
          <mxGeometry relative="1" as="geometry">
            <Array as="points">
              <mxPoint x="713" y="1050" />
              <mxPoint x="713" y="1140" />
            </Array>
          </mxGeometry>
        </mxCell>
        <mxCell id="qWkoYMUVsIUnYZ1i2x7t-44" value="false" style="edgeLabel;html=1;align=center;verticalAlign=middle;resizable=0;points=[];" vertex="1" connectable="0" parent="qWkoYMUVsIUnYZ1i2x7t-43">
          <mxGeometry x="-0.8756" y="1" relative="1" as="geometry">
            <mxPoint as="offset" />
          </mxGeometry>
        </mxCell>
        <mxCell id="qWkoYMUVsIUnYZ1i2x7t-36" value="col+1&amp;lt;N&amp;amp;&amp;amp;cave[col+1][j]==O?" style="rhombus;whiteSpace=wrap;html=1;" vertex="1" parent="1">
          <mxGeometry x="477.5" y="1020" width="215" height="60" as="geometry" />
        </mxCell>
        <mxCell id="qWkoYMUVsIUnYZ1i2x7t-42" style="edgeStyle=orthogonalEdgeStyle;rounded=0;orthogonalLoop=1;jettySize=auto;html=1;entryX=0.5;entryY=0;entryDx=0;entryDy=0;" edge="1" parent="1" source="qWkoYMUVsIUnYZ1i2x7t-38" target="qWkoYMUVsIUnYZ1i2x7t-41">
          <mxGeometry relative="1" as="geometry">
            <Array as="points">
              <mxPoint x="588" y="1095" />
            </Array>
          </mxGeometry>
        </mxCell>
        <mxCell id="qWkoYMUVsIUnYZ1i2x7t-38" value="col++" style="rounded=0;whiteSpace=wrap;html=1;" vertex="1" parent="1">
          <mxGeometry x="407.5" y="1080" width="70" height="30" as="geometry" />
        </mxCell>
        <mxCell id="qWkoYMUVsIUnYZ1i2x7t-46" style="edgeStyle=orthogonalEdgeStyle;rounded=0;orthogonalLoop=1;jettySize=auto;html=1;entryX=0.5;entryY=0;entryDx=0;entryDy=0;" edge="1" parent="1" source="qWkoYMUVsIUnYZ1i2x7t-41" target="qWkoYMUVsIUnYZ1i2x7t-45">
          <mxGeometry relative="1" as="geometry" />
        </mxCell>
        <mxCell id="qWkoYMUVsIUnYZ1i2x7t-66" value="true" style="edgeLabel;html=1;align=center;verticalAlign=middle;resizable=0;points=[];" vertex="1" connectable="0" parent="qWkoYMUVsIUnYZ1i2x7t-46">
          <mxGeometry x="0.24" y="2" relative="1" as="geometry">
            <mxPoint as="offset" />
          </mxGeometry>
        </mxCell>
        <mxCell id="qWkoYMUVsIUnYZ1i2x7t-67" style="edgeStyle=orthogonalEdgeStyle;rounded=0;orthogonalLoop=1;jettySize=auto;html=1;entryX=0;entryY=0.5;entryDx=0;entryDy=0;" edge="1" parent="1" source="qWkoYMUVsIUnYZ1i2x7t-41" target="qWkoYMUVsIUnYZ1i2x7t-20">
          <mxGeometry relative="1" as="geometry">
            <Array as="points">
              <mxPoint x="390" y="1140" />
              <mxPoint x="390" y="730" />
              <mxPoint x="528" y="730" />
            </Array>
          </mxGeometry>
        </mxCell>
        <mxCell id="qWkoYMUVsIUnYZ1i2x7t-41" value="col !=i?" style="rhombus;whiteSpace=wrap;html=1;" vertex="1" parent="1">
          <mxGeometry x="552.5" y="1110" width="70" height="60" as="geometry" />
        </mxCell>
        <mxCell id="qWkoYMUVsIUnYZ1i2x7t-50" style="edgeStyle=orthogonalEdgeStyle;rounded=0;orthogonalLoop=1;jettySize=auto;html=1;entryX=0;entryY=0.5;entryDx=0;entryDy=0;" edge="1" parent="1" source="qWkoYMUVsIUnYZ1i2x7t-45" target="qWkoYMUVsIUnYZ1i2x7t-20">
          <mxGeometry relative="1" as="geometry">
            <Array as="points">
              <mxPoint x="370" y="1220" />
              <mxPoint x="370" y="690" />
              <mxPoint x="528" y="690" />
            </Array>
          </mxGeometry>
        </mxCell>
        <mxCell id="qWkoYMUVsIUnYZ1i2x7t-45" value="swap(cave[ i ][ j ],cave[ col ][ j ])" style="rounded=0;whiteSpace=wrap;html=1;" vertex="1" parent="1">
          <mxGeometry x="495" y="1200" width="185" height="40" as="geometry" />
        </mxCell>
        <mxCell id="qWkoYMUVsIUnYZ1i2x7t-82" style="edgeStyle=orthogonalEdgeStyle;rounded=0;orthogonalLoop=1;jettySize=auto;html=1;" edge="1" parent="1" source="qWkoYMUVsIUnYZ1i2x7t-69" target="qWkoYMUVsIUnYZ1i2x7t-74">
          <mxGeometry relative="1" as="geometry" />
        </mxCell>
        <mxCell id="qWkoYMUVsIUnYZ1i2x7t-69" value="endline" style="shape=parallelogram;perimeter=parallelogramPerimeter;whiteSpace=wrap;html=1;fixedSize=1;" vertex="1" parent="1">
          <mxGeometry x="530" y="1280" width="110" height="30" as="geometry" />
        </mxCell>
        <mxCell id="qWkoYMUVsIUnYZ1i2x7t-71" style="edgeStyle=orthogonalEdgeStyle;rounded=0;orthogonalLoop=1;jettySize=auto;html=1;entryX=0.5;entryY=0;entryDx=0;entryDy=0;" edge="1" parent="1" source="qWkoYMUVsIUnYZ1i2x7t-74" target="qWkoYMUVsIUnYZ1i2x7t-79">
          <mxGeometry relative="1" as="geometry" />
        </mxCell>
        <mxCell id="qWkoYMUVsIUnYZ1i2x7t-72" value="true" style="edgeLabel;html=1;align=center;verticalAlign=middle;resizable=0;points=[];" vertex="1" connectable="0" parent="qWkoYMUVsIUnYZ1i2x7t-71">
          <mxGeometry x="-0.2" y="2" relative="1" as="geometry">
            <mxPoint as="offset" />
          </mxGeometry>
        </mxCell>
        <mxCell id="qWkoYMUVsIUnYZ1i2x7t-99" style="edgeStyle=orthogonalEdgeStyle;rounded=0;orthogonalLoop=1;jettySize=auto;html=1;entryX=1;entryY=0.5;entryDx=0;entryDy=0;" edge="1" parent="1" source="qWkoYMUVsIUnYZ1i2x7t-74" target="qWkoYMUVsIUnYZ1i2x7t-98">
          <mxGeometry relative="1" as="geometry" />
        </mxCell>
        <mxCell id="qWkoYMUVsIUnYZ1i2x7t-100" value="false" style="edgeLabel;html=1;align=center;verticalAlign=middle;resizable=0;points=[];" vertex="1" connectable="0" parent="qWkoYMUVsIUnYZ1i2x7t-99">
          <mxGeometry x="-0.3958" y="1" relative="1" as="geometry">
            <mxPoint as="offset" />
          </mxGeometry>
        </mxCell>
        <mxCell id="qWkoYMUVsIUnYZ1i2x7t-74" value="i=0;i&amp;lt;N;i++" style="rhombus;whiteSpace=wrap;html=1;" vertex="1" parent="1">
          <mxGeometry x="527.5" y="1328" width="115" height="90" as="geometry" />
        </mxCell>
        <mxCell id="qWkoYMUVsIUnYZ1i2x7t-75" style="edgeStyle=orthogonalEdgeStyle;rounded=0;orthogonalLoop=1;jettySize=auto;html=1;" edge="1" parent="1" source="qWkoYMUVsIUnYZ1i2x7t-79" target="qWkoYMUVsIUnYZ1i2x7t-81">
          <mxGeometry relative="1" as="geometry" />
        </mxCell>
        <mxCell id="qWkoYMUVsIUnYZ1i2x7t-76" value="true" style="edgeLabel;html=1;align=center;verticalAlign=middle;resizable=0;points=[];" vertex="1" connectable="0" parent="qWkoYMUVsIUnYZ1i2x7t-75">
          <mxGeometry x="-0.2099" relative="1" as="geometry">
            <mxPoint as="offset" />
          </mxGeometry>
        </mxCell>
        <mxCell id="qWkoYMUVsIUnYZ1i2x7t-89" style="edgeStyle=orthogonalEdgeStyle;rounded=0;orthogonalLoop=1;jettySize=auto;html=1;entryX=0.5;entryY=0;entryDx=0;entryDy=0;" edge="1" parent="1" source="qWkoYMUVsIUnYZ1i2x7t-79" target="qWkoYMUVsIUnYZ1i2x7t-87">
          <mxGeometry relative="1" as="geometry" />
        </mxCell>
        <mxCell id="qWkoYMUVsIUnYZ1i2x7t-90" value="false" style="edgeLabel;html=1;align=center;verticalAlign=middle;resizable=0;points=[];" vertex="1" connectable="0" parent="qWkoYMUVsIUnYZ1i2x7t-89">
          <mxGeometry x="-0.7645" y="-1" relative="1" as="geometry">
            <mxPoint as="offset" />
          </mxGeometry>
        </mxCell>
        <mxCell id="qWkoYMUVsIUnYZ1i2x7t-79" value="j=0;j&amp;lt;M;j++" style="rhombus;whiteSpace=wrap;html=1;" vertex="1" parent="1">
          <mxGeometry x="531" y="1450" width="115" height="90" as="geometry" />
        </mxCell>
        <mxCell id="qWkoYMUVsIUnYZ1i2x7t-80" style="edgeStyle=orthogonalEdgeStyle;rounded=0;orthogonalLoop=1;jettySize=auto;html=1;entryX=0;entryY=0.5;entryDx=0;entryDy=0;" edge="1" parent="1" source="qWkoYMUVsIUnYZ1i2x7t-81" target="qWkoYMUVsIUnYZ1i2x7t-79">
          <mxGeometry relative="1" as="geometry">
            <Array as="points">
              <mxPoint x="506" y="1605" />
              <mxPoint x="506" y="1495" />
            </Array>
          </mxGeometry>
        </mxCell>
        <mxCell id="qWkoYMUVsIUnYZ1i2x7t-81" value="output cave[ i ] [ j ]" style="shape=parallelogram;perimeter=parallelogramPerimeter;whiteSpace=wrap;html=1;fixedSize=1;" vertex="1" parent="1">
          <mxGeometry x="521.5" y="1580" width="134" height="50" as="geometry" />
        </mxCell>
        <mxCell id="qWkoYMUVsIUnYZ1i2x7t-91" style="edgeStyle=orthogonalEdgeStyle;rounded=0;orthogonalLoop=1;jettySize=auto;html=1;entryX=1;entryY=0.5;entryDx=0;entryDy=0;" edge="1" parent="1" source="qWkoYMUVsIUnYZ1i2x7t-87" target="qWkoYMUVsIUnYZ1i2x7t-74">
          <mxGeometry relative="1" as="geometry">
            <Array as="points">
              <mxPoint x="790" y="1605" />
              <mxPoint x="790" y="1373" />
            </Array>
          </mxGeometry>
        </mxCell>
        <mxCell id="qWkoYMUVsIUnYZ1i2x7t-87" value="endline" style="shape=parallelogram;perimeter=parallelogramPerimeter;whiteSpace=wrap;html=1;fixedSize=1;" vertex="1" parent="1">
          <mxGeometry x="660" y="1590" width="110" height="30" as="geometry" />
        </mxCell>
        <mxCell id="qWkoYMUVsIUnYZ1i2x7t-98" value="&lt;font color=&quot;#ff3333&quot;&gt;End&lt;/font&gt;" style="ellipse;whiteSpace=wrap;html=1;" vertex="1" parent="1">
          <mxGeometry x="340" y="1333" width="120" height="80" as="geometry" />
        </mxCell>
      </root>
    </mxGraphModel>
  </diagram>
</mxfile>
